/* XPM */
static char *_bbd516e54054438dee2d5e6f1717e10CGoF9tX2QLsfQa6M[] = {
/* columns rows colors chars-per-pixel */
"64 64 5 1 ",
"  c #477F91",
". c #4C8FA6",
"X c #509EBA",
"o c #61B0C1",
"O c #7BBBC8",
/* pixels */
"............XXXX........            XXXX............            ",
"............XXXX........            XXXX............            ",
"............XXXX........            XXXX............            ",
"............XXXX........            XXXX............            ",
"........XXXX........................XXXX........................",
"........XXXX........................XXXX........................",
"........XXXX........................XXXX........................",
"........XXXX........................XXXX........................",
"XXXX....oooo............XXXXoooo....OOOO....................XXXX",
"XXXX....oooo............XXXXoooo....OOOO....................XXXX",
"XXXX....oooo............XXXXoooo....OOOO....................XXXX",
"XXXX....oooo............XXXXoooo....OOOO....................XXXX",
"....XXXXXXXXooooOOOOoooo        XXXXoooo............XXXXoooo    ",
"....XXXXXXXXooooOOOOoooo        XXXXoooo............XXXXoooo    ",
"....XXXXXXXXooooOOOOoooo        XXXXoooo............XXXXoooo    ",
"....XXXXXXXXooooOOOOoooo        XXXXoooo............XXXXoooo    ",
"............XXXX................    XXXX........oooo        ....",
"............XXXX................    XXXX........oooo        ....",
"............XXXX................    XXXX........oooo        ....",
"............XXXX................    XXXX........oooo        ....",
"............XXXX........................XXXXoooo    ............",
"............XXXX........................XXXXoooo    ............",
"............XXXX........................XXXXoooo    ............",
"............XXXX........................XXXXoooo    ............",
"........oooo    XXXX........................oooo................",
"........oooo    XXXX........................oooo................",
"........oooo    XXXX........................oooo................",
"........oooo    XXXX........................oooo................",
"oooooooo    ....    XXXXXXXXXXXXXXXX....XXXX....................",
"oooooooo    ....    XXXXXXXXXXXXXXXX....XXXX....................",
"oooooooo    ....    XXXXXXXXXXXXXXXX....XXXX....................",
"oooooooo    ....    XXXXXXXXXXXXXXXX....XXXX....................",
"....        ....XXXX............    XXXXoooo....................",
"....        ....XXXX............    XXXXoooo....................",
"....        ....XXXX............    XXXXoooo....................",
"....        ....XXXX............    XXXXoooo....................",
"................oooo............        OOOO................XXXX",
"................oooo............        OOOO................XXXX",
"................oooo............        OOOO................XXXX",
"................oooo............        OOOO................XXXX",
"XXXX........ooooOOOO................    XXXXooooOOOOXXXXoooo    ",
"XXXX........ooooOOOO................    XXXXooooOOOOXXXXoooo    ",
"XXXX........ooooOOOO................    XXXXooooOOOOXXXXoooo    ",
"XXXX........ooooOOOO................    XXXXooooOOOOXXXXoooo    ",
"    XXXXoooo............................oooo....            ....",
"    XXXXoooo............................oooo....            ....",
"    XXXXoooo............................oooo....            ....",
"    XXXXoooo............................oooo....            ....",
"....    XXXX........................oooo........................",
"....    XXXX........................oooo........................",
"....    XXXX........................oooo........................",
"....    XXXX........................oooo........................",
"........    oooo................XXXX        ................XXXX",
"........    oooo................XXXX        ................XXXX",
"........    oooo................XXXX        ................XXXX",
"........    oooo................XXXX        ................XXXX",
"XXXXoooo........XXXXooooooooXXXX    ................oooooooo    ",
"XXXXoooo........XXXXooooooooXXXX    ................oooooooo    ",
"XXXXoooo........XXXXooooooooXXXX    ................oooooooo    ",
"XXXXoooo........XXXXooooooooXXXX    ................oooooooo    ",
"....    ooooXXXX............    ........XXXXooooXXXX....    ....",
"....    ooooXXXX............    ........XXXXooooXXXX....    ....",
"....    ooooXXXX............    ........XXXXooooXXXX....    ....",
"....    ooooXXXX............    ........XXXXooooXXXX....    ...."
};