/* XPM */
static char *fb956604bf554d66ad3753184eb32146XuGhXK547qsTmd6A[] = {
/* columns rows colors chars-per-pixel */
"128 128 2 1 ",
"  c black",
". c white",
/* pixels */
"                                                                                                                                ",
"                                                                                                                                ",
"                                                                                                                                ",
"                                                                                                                                ",
"    ........................................................................................................................    ",
"    ........................................................................................................................    ",
"    ........................................................................................................................    ",
"    ........................................................................................................................    ",
"    ........................................................................................................................    ",
"    ........................................................................................................................    ",
"    ........................................................................................................................    ",
"    ........................................................................................................................    ",
"    ........................................................................................................................    ",
"    ........................................................................................................................    ",
"    ........................................................................................................................    ",
"    ........................................................................................................................    ",
"    ........................................................................................................................    ",
"    ........................................................................................................................    ",
"    ........................................................................................................................    ",
"    ........................................................................................................................    ",
"    ........................................................................................................................    ",
"    ........................................................................................................................    ",
"    ........................................................................................................................    ",
"    ........................................................................................................................    ",
"    ........................................................................................................................    ",
"    ........................................................................................................................    ",
"    ........................................................................................................................    ",
"    ........................................................................................................................    ",
"    ........................................................................................................................    ",
"    ........................................................................................................................    ",
"    ........................................................................................................................    ",
"    ........................................................................................................................    ",
"    ........................................................................................................................    ",
"    ........................................................................................................................    ",
"    ........................................................................................................................    ",
"    ........................................................................................................................    ",
"    ........................................................................................................................    ",
"    ........................................................................................................................    ",
"    ........................................................................................................................    ",
"    ........................................................................................................................    ",
"    ........................................................................................................................    ",
"    ........................................................................................................................    ",
"    ........................................................................................................................    ",
"    ........................................................................................................................    ",
"    ........................................................................................................................    ",
"    ........................................................................................................................    ",
"    ........................................................................................................................    ",
"    ........................................................................................................................    ",
"    ........................................................................................................................    ",
"    ........................................................................................................................    ",
"    ........................................................................................................................    ",
"    ........................................................................................................................    ",
"    ........................................................................................................................    ",
"    ........................................................................................................................    ",
"    ........................................................................................................................    ",
"    ........................................................................................................................    ",
"    ........................................................................................................................    ",
"    ........................................................................................................................    ",
"    ........................................................................................................................    ",
"    ........................................................................................................................    ",
"    ........................................................................................................................    ",
"    ........................................................................................................................    ",
"    ........................................................................................................................    ",
"    ........................................................................................................................    ",
"    ........................................................................................................................    ",
"    ........................................................................................................................    ",
"    ........................................................................................................................    ",
"    ........................................................................................................................    ",
"    ........................................................................................................................    ",
"    ........................................................................................................................    ",
"    ........................................................................................................................    ",
"    ........................................................................................................................    ",
"    ........................................................................................................................    ",
"    ........................................................................................................................    ",
"    ........................................................................................................................    ",
"    ........................................................................................................................    ",
"    ........................................................................................................................    ",
"    ........................................................................................................................    ",
"    ........................................................................................................................    ",
"    ........................................................................................................................    ",
"    ........................................................................................................................    ",
"    ........................................................................................................................    ",
"    ........................................................................................................................    ",
"    ........................................................................................................................    ",
"    ........................................................................................................................    ",
"    ........................................................................................................................    ",
"    ........................................................................................................................    ",
"    ........................................................................................................................    ",
"    ........................................................................................................................    ",
"    ........................................................................................................................    ",
"    ........................................................................................................................    ",
"    ........................................................................................................................    ",
"    ........................................................................................................................    ",
"    ........................................................................................................................    ",
"    ........................................................................................................................    ",
"    ........................................................................................................................    ",
"    ........................................................................................................................    ",
"    ........................................................................................................................    ",
"    ........................................................................................................................    ",
"    ........................................................................................................................    ",
"    ........................................................................................................................    ",
"    ........................................................................................................................    ",
"    ........................................................................................................................    ",
"    ........................................................................................................................    ",
"    ........................................................................................................................    ",
"    ........................................................................................................................    ",
"    ........................................................................................................................    ",
"    ........................................................................................................................    ",
"    ........................................................................................................................    ",
"    ........................................................................................................................    ",
"    ........................................................................................................................    ",
"    ........................................................................................................................    ",
"    ........................................................................................................................    ",
"    ........................................................................................................................    ",
"    ........................................................................................................................    ",
"    ........................................................................................................................    ",
"    ........................................................................................................................    ",
"    ........................................................................................................................    ",
"    ........................................................................................................................    ",
"    ........................................................................................................................    ",
"    ........................................................................................................................    ",
"    ........................................................................................................................    ",
"    ........................................................................................................................    ",
"    ........................................................................................................................    ",
"                                                                                                                                ",
"                                                                                                                                ",
"                                                                                                                                ",
"                                                                                                                                "
};
